<svg version="1.1" id="Layer_1" xmlns="http://www.w3.org/2000/svg" xmlns:xlink="http://www.w3.org/1999/xlink" x="0px" y="0px"
	 width="100%" viewBox="0 0 928 464" enable-background="new 0 0 928 464" xml:space="preserve">
<path fill="#1C2C58" opacity="1.000000" stroke="none" 
	d="
M702.834473,272.714539 
	C696.676208,278.435394 698.949646,284.054871 701.903381,289.972778 
	C707.909363,302.005890 714.049683,313.998413 719.397034,326.327606 
	C727.294373,344.536041 736.646851,362.055817 744.353577,380.360413 
	C746.965393,386.563904 750.189453,392.678589 753.677185,398.509125 
	C757.953247,405.657532 756.835938,412.205719 752.420227,418.544220 
	C747.917664,425.007324 741.240417,426.627808 733.899292,425.647705 
	C728.355042,424.907471 723.708923,421.704742 718.892700,419.083862 
	C713.559875,416.181824 712.335266,416.904907 712.283752,423.140656 
	C712.241028,428.306641 712.520935,433.487671 712.212402,438.635315 
	C711.956421,442.906433 713.659424,444.013336 717.708252,443.993713 
	C743.706360,443.867523 769.705566,443.950409 795.704407,443.972992 
	C797.703430,443.974731 799.717102,443.899353 801.698486,444.105286 
	C806.525146,444.606934 809.689575,447.710327 809.478882,451.594604 
	C809.187317,456.970795 805.423645,457.285339 801.303406,457.285126 
	C745.639038,457.282318 689.974670,457.316650 634.310303,457.328369 
	C528.147827,457.350769 421.985321,457.369415 315.822815,457.379852 
	C257.837097,457.385529 199.851364,457.378265 141.865646,457.341797 
	C139.427902,457.340240 136.710480,458.014740 134.736603,455.963318 
	C133.039154,454.199158 132.254395,451.934540 132.989929,449.503876 
	C133.740158,447.024719 135.119537,444.885345 137.921051,444.397430 
	C139.710617,444.085754 141.560608,444.023285 143.383987,444.018341 
	C170.715805,443.943787 198.047913,443.829712 225.379333,443.917999 
	C229.436157,443.931091 231.076263,442.792694 230.888077,438.552368 
	C230.602509,432.117157 230.813416,425.659882 230.813416,418.644348 
	C225.575989,420.460236 220.985321,421.547699 216.645111,423.731201 
	C209.332870,427.409882 201.962296,427.307129 194.738983,422.999237 
	C186.769150,418.246033 183.726593,407.146484 188.292816,399.259979 
	C194.124191,389.188416 197.912308,378.124603 203.185410,367.826324 
	C207.120346,360.141479 208.562424,350.979767 214.344940,344.644714 
	C221.338470,336.982941 221.815781,327.128448 225.731216,318.501282 
	C236.640030,294.465057 247.757965,270.523773 258.781067,246.539383 
	C263.149445,237.034515 266.776306,227.194534 271.712036,217.945129 
	C272.650726,216.186066 273.187439,214.097900 274.466370,212.655090 
	C279.596771,206.867386 280.185150,200.130539 280.109924,192.734879 
	C279.815155,163.739685 279.658112,134.734894 280.102051,105.743660 
	C280.339935,90.207565 293.104004,73.589539 311.542969,73.633469 
	C418.038177,73.887184 524.534363,73.817528 631.030029,73.717194 
	C644.480042,73.704529 657.357849,84.454185 660.830688,96.117973 
	C662.440430,101.524284 662.988342,106.762711 662.972534,112.276215 
	C662.893188,139.940903 663.435120,167.620941 662.612732,195.261475 
	C662.373535,203.302872 667.213013,208.001755 669.861267,214.177414 
	C670.358643,215.337143 671.716064,216.131805 672.766724,215.423721 
	C676.935730,212.614075 682.300110,212.051727 685.445618,207.107147 
	C688.622131,202.113983 693.099609,197.941681 697.055481,193.452377 
	C708.505310,180.458572 719.975342,167.482483 731.447266,154.508148 
	C734.185181,151.411667 737.113403,149.926849 740.889221,153.103897 
	C743.815796,155.566406 744.605225,157.969482 741.853149,161.133728 
	C728.521301,176.462158 715.266663,191.857864 701.956482,207.205292 
	C698.317566,211.401291 696.213867,216.653381 691.605408,220.299835 
	C687.713806,223.379028 684.174316,225.809006 678.993530,226.476242 
	C664.296082,228.369125 651.552246,235.203934 639.554443,243.554764 
	C638.863770,244.035446 638.319885,244.685226 638.792114,246.553101 
	C642.582886,245.794357 645.880676,244.064331 648.861328,241.595764 
	C651.388550,239.502792 653.718689,236.395355 657.426453,239.323456 
	C660.856140,242.031876 661.371643,246.575638 659.187500,250.589752 
	C652.093628,263.627441 641.691040,273.086700 628.324219,279.393677 
	C627.497864,279.783600 626.281067,279.772278 626.131470,281.438690 
	C629.819885,282.550171 632.571533,279.972351 635.180115,278.522308 
	C641.695740,274.900452 648.474304,271.590759 654.078064,266.491577 
	C656.901550,263.922333 660.066833,262.859039 663.677673,264.795929 
	C667.114685,266.639648 667.100342,269.705109 665.940918,273.413300 
	C668.156555,272.632080 669.790161,271.844391 671.512573,271.496399 
	C674.381226,270.916748 676.965027,271.712524 678.169495,274.554260 
	C679.241150,277.082733 677.801758,278.782928 675.783569,280.457367 
	C672.993042,282.772644 669.031555,283.332764 666.750854,286.573425 
	C671.248596,286.456085 679.512146,281.220245 684.282349,275.743378 
	C689.342407,269.933838 694.612610,263.888458 696.991394,256.733185 
	C703.299316,237.758606 719.406860,227.124664 732.076294,213.620819 
	C742.662964,202.337021 754.089050,191.842102 765.102051,180.956039 
	C767.420471,178.664368 769.524475,175.975922 772.997498,179.185974 
	C776.379517,182.311905 776.425171,186.219864 773.198303,189.506439 
	C753.830566,209.232849 734.480042,228.976212 715.092834,248.683502 
	C713.399475,250.404831 712.338013,252.199921 712.014465,254.713196 
	C711.354004,259.843445 707.525879,263.531616 705.356140,267.993622 
	C704.630249,269.486511 703.801758,270.929504 702.834473,272.714539 
M315.279846,376.654541 
	C321.697662,374.402863 328.085632,372.061493 334.538971,369.916656 
	C352.491058,363.950073 370.523346,358.220367 388.422546,352.100433 
	C403.638031,346.898102 418.693970,341.230957 433.853729,335.863312 
	C454.486237,328.557861 475.182220,321.430817 495.791046,314.059692 
	C512.973633,307.913971 530.044556,301.456512 547.214600,295.275146 
	C556.429077,291.957825 565.819641,289.124390 575.003540,285.728607 
	C589.000671,280.553009 602.904236,275.122131 616.813477,269.711975 
	C622.884583,267.350555 628.710266,264.489624 634.729675,260.043152 
	C630.666077,258.982513 627.508240,258.869293 624.449707,259.385345 
	C616.765564,260.681854 608.985901,260.761078 601.258911,262.170746 
	C577.529297,266.499756 553.258667,265.103821 529.341431,268.083649 
	C518.820984,269.394409 508.067444,268.820679 497.420868,269.140259 
	C494.120056,269.239349 491.079102,268.716064 488.865845,265.984558 
	C487.434937,264.218597 485.874451,263.832428 484.265991,265.585541 
	C481.882660,268.183167 478.731506,268.316742 475.569458,268.659882 
	C468.933594,269.379974 466.684448,266.948608 467.798340,260.401215 
	C468.574677,255.837875 471.847961,254.926514 475.536163,255.104813 
	C482.600494,255.446365 489.627441,255.887466 496.731445,255.920059 
	C509.899780,255.980499 522.981995,254.504272 536.134521,254.595810 
	C540.101685,254.623413 544.129211,254.679840 548.066589,254.405502 
	C570.798950,252.821548 593.466736,250.530228 616.023560,247.225861 
	C622.667053,246.252655 624.153320,244.924561 625.579651,238.084457 
	C621.857422,236.541183 617.722473,237.480469 613.904907,236.125809 
	C601.642090,231.774384 589.395325,227.356033 576.814636,223.956406 
	C574.407837,223.306015 572.080261,222.336136 570.437012,220.248001 
	C568.466553,217.744034 567.937439,215.053787 569.993286,212.480469 
	C572.198120,209.720612 574.962830,210.136078 577.528748,212.025040 
	C579.158081,213.224487 580.706787,214.572556 582.804016,214.637711 
	C588.271851,214.807556 593.231262,217.134720 597.993469,219.169144 
	C609.103027,223.915253 620.960938,225.814087 632.345093,229.426331 
	C633.565430,229.813538 634.568481,229.137619 635.678833,228.799942 
	C642.892029,226.606262 648.520386,221.374344 655.524414,218.940201 
	C652.948669,210.519135 646.846069,205.907684 636.734009,206.609192 
	C621.234802,207.684418 605.783569,206.111649 590.296631,206.844070 
	C570.821167,207.765137 551.321167,206.542099 531.831726,206.442795 
	C495.505951,206.257690 459.177979,206.229797 422.852203,206.407440 
	C384.034515,206.597244 345.212280,205.666473 306.397858,206.953217 
	C294.849609,207.336060 287.601929,213.007416 283.421051,223.614456 
	C274.813293,245.452713 264.269135,266.438293 254.653610,287.833771 
	C248.789932,300.881042 241.694016,313.474365 236.986023,326.914215 
	C231.881195,341.486877 223.150436,354.152435 217.598007,368.450867 
	C212.734863,380.974243 206.229477,392.857819 200.509811,405.052338 
	C199.227325,407.786621 197.904877,410.517059 201.367767,412.981110 
	C204.874161,415.476013 208.108200,416.406799 211.741974,413.298615 
	C213.356033,411.917999 214.777771,410.198395 217.053329,409.696655 
	C230.170303,406.804443 242.673477,401.878784 255.399216,397.747314 
	C275.274933,391.294586 294.869843,383.976868 315.279846,376.654541 
M401.500000,403.800446 
	C504.125763,403.803314 606.751770,403.716370 709.376770,403.997650 
	C716.741760,404.017822 724.300232,405.753662 730.214050,411.641479 
	C732.775330,414.191467 736.923218,416.245056 740.707275,414.033661 
	C744.569397,411.776703 742.876160,407.868011 742.023193,404.517059 
	C740.861633,399.953857 737.947632,396.188812 736.146912,391.906006 
	C729.521851,376.148682 721.927979,360.838470 714.625549,345.393066 
	C713.165955,342.305969 710.961609,340.826813 707.613892,340.778595 
	C699.635620,340.663696 691.658081,340.389862 683.680054,340.380981 
	C615.874695,340.305450 548.067383,340.533356 480.265717,340.012878 
	C466.702118,339.908783 454.185242,342.506561 441.642212,346.979614 
	C417.409363,355.621582 393.067230,363.959961 368.723541,372.287262 
	C354.281433,377.227539 339.765198,381.933929 325.392731,387.097839 
	C317.758545,389.840698 310.199860,392.888397 302.311615,395.048340 
	C294.385345,397.218689 286.748962,400.447906 278.985565,403.213074 
	C279.035126,403.408173 279.084717,403.603302 279.134277,403.798401 
	C319.589508,403.798401 360.044769,403.798401 401.500000,403.800446 
M537.500000,87.102875 
	C462.203400,87.103630 386.906769,87.106049 311.610168,87.103142 
	C301.790924,87.102760 293.385376,95.561798 293.356903,105.849548 
	C293.286865,131.170258 293.339142,156.491425 293.402313,181.812256 
	C293.411011,185.303268 293.732330,188.795349 293.964081,192.283264 
	C294.097565,194.292328 294.685089,196.377060 297.236511,195.149643 
	C303.916626,191.936096 310.909851,192.884354 317.861053,193.181061 
	C320.211029,193.281372 322.005249,192.764526 321.949188,190.119766 
	C321.843353,185.129242 322.927795,180.219025 322.390839,175.169067 
	C321.669159,168.381744 321.223907,161.085159 323.467010,154.890823 
	C328.522308,140.930756 340.083984,131.781784 356.310822,131.866928 
	C382.458801,132.004120 408.605591,132.385025 434.752411,132.700287 
	C438.717438,132.748077 442.635864,132.145630 446.659149,133.180084 
	C456.798553,135.787094 464.681885,141.389832 470.398010,150.376740 
	C471.248596,149.667191 471.856384,149.343063 472.208221,148.839951 
	C481.602112,135.406601 495.148102,131.509293 510.626312,132.151901 
	C535.269653,133.175003 559.932251,132.905991 584.567993,132.483673 
	C596.661499,132.276367 605.793213,136.954163 613.501587,145.272705 
	C617.708435,149.812515 620.932678,155.449051 620.826172,161.809113 
	C620.684082,170.296082 620.690613,178.788727 620.451904,187.262054 
	C620.307251,192.395767 622.276306,193.061951 626.525940,193.035522 
	C632.630920,192.997528 638.958923,191.745880 644.765137,194.545624 
	C648.961670,196.569199 649.692322,194.718750 649.695984,191.059845 
	C649.724365,162.575409 650.117188,134.086334 649.691406,105.609253 
	C649.549133,96.092575 641.773193,86.662796 630.450867,86.902893 
	C599.812927,87.552597 569.151855,87.111839 537.500000,87.102875 
M631.500000,417.039520 
	C526.001892,417.035706 420.503815,417.026855 315.005707,417.034668 
	C302.672943,417.035583 290.339478,417.220154 278.007935,417.119904 
	C274.515076,417.091553 272.719604,418.319946 272.347992,421.814911 
	C271.767120,427.277649 271.141632,432.738434 270.379089,438.178192 
	C269.783295,442.428864 271.101898,444.028961 275.728180,444.024445 
	C406.225311,443.897125 536.722595,443.907898 667.219849,443.867126 
	C669.156006,443.866516 671.230408,444.455566 673.428894,442.772003 
	C672.344177,436.312134 673.316833,429.516693 671.802734,422.759277 
	C670.833557,418.433838 669.146362,416.638336 664.495483,416.798859 
	C653.840332,417.166595 643.166321,416.991699 631.500000,417.039520 
M489.050964,150.504959 
	C479.124908,157.994278 476.159424,168.482010 476.308624,180.267731 
	C476.467560,192.821747 476.501770,192.821289 488.628326,192.921463 
	C488.961639,192.924210 489.294922,192.933258 489.628235,192.933212 
	C526.961182,192.928101 564.294250,192.891418 601.627014,192.968460 
	C605.062195,192.975540 606.053101,191.852448 606.350525,188.365891 
	C607.046936,180.200378 606.651367,172.041168 606.779724,163.889160 
	C606.883301,157.310852 603.549744,152.465958 597.881470,148.726013 
	C592.987793,145.497116 588.027344,145.863464 582.676575,145.913910 
	C557.011963,146.155991 531.343994,146.185089 505.678345,146.057465 
	C499.879761,146.028641 494.384735,146.277512 489.050964,150.504959 
M335.641907,189.371429 
	C335.660980,193.112900 338.315826,192.953720 340.900055,192.951065 
	C349.230286,192.942505 357.560486,192.962204 365.890717,192.955139 
	C397.046417,192.928696 428.202393,192.826797 459.357483,192.948883 
	C463.477936,192.965027 465.151489,191.798752 464.869049,187.590179 
	C464.613129,183.777313 464.971649,179.927216 464.837402,176.101318 
	C464.538940,167.597031 462.657471,159.620773 456.375671,153.336304 
	C452.170227,149.129059 447.512207,146.009399 441.140533,146.069244 
	C423.814545,146.231934 406.486725,146.228683 389.159607,146.227859 
	C377.498505,146.227295 365.835724,145.971329 354.176758,146.101776 
	C343.192230,146.224670 335.694000,154.312943 335.865234,165.110611 
	C335.989166,172.923767 335.772858,180.742340 335.641907,189.371429 
M570.129578,327.163544 
	C575.448181,328.090759 580.760376,327.095917 586.076477,327.099060 
	C617.527405,327.117584 648.978394,327.090973 680.429321,327.080963 
	C688.528381,327.078369 696.627380,327.080566 705.301208,327.080566 
	C700.269470,314.078979 694.185608,301.933685 687.326904,289.168854 
	C682.057861,296.218079 673.976929,297.946259 667.687805,302.524536 
	C666.332458,303.511200 664.596619,304.610870 663.062439,303.953308 
	C656.942505,301.330261 650.638184,308.617065 644.579102,303.503143 
	C644.218323,303.198608 642.795349,304.096283 641.896240,304.500366 
	C640.793701,304.995880 639.677612,305.157471 638.494263,304.897400 
	C627.896423,302.568604 619.390808,296.668457 612.159485,288.910248 
	C610.090576,286.690643 608.656616,285.635834 605.977661,287.593414 
	C604.942627,288.349792 603.580078,288.681366 602.338623,289.128326 
	C590.661560,293.332123 578.977722,297.517212 567.297180,301.711273 
	C555.424316,305.974457 543.579407,310.317444 531.673035,314.484894 
	C520.682800,318.331635 510.168488,323.461121 498.908234,327.128113 
	C522.338074,327.128113 545.767883,327.128113 570.129578,327.163544 
M699.984375,424.813721 
	C700.218811,416.833710 701.439453,416.923035 692.441345,417.119934 
	C691.114624,417.148987 689.781006,417.180664 688.459778,417.084198 
	C685.186218,416.845306 683.956848,418.332214 684.276611,421.543518 
	C684.719971,425.996063 685.031616,430.463287 685.319885,434.929413 
	C685.909363,444.061676 686.020081,444.057800 695.260010,443.907288 
	C698.709839,443.851074 700.032349,442.563904 699.936096,439.179413 
	C699.808838,434.703430 699.951416,430.219757 699.984375,424.813721 
M244.150360,430.500031 
	C244.153748,431.999054 244.151443,433.498077 244.161484,434.997070 
	C244.225479,444.559296 244.508774,444.811310 254.031677,443.814148 
	C254.196945,443.796844 254.364395,443.798248 254.530899,443.794952 
	C256.637970,443.753204 257.345001,442.669128 257.350647,440.594513 
	C257.365112,435.277618 257.625000,429.961945 257.694946,424.644531 
	C257.793121,417.180695 257.741364,417.480225 250.527054,417.090271 
	C245.483780,416.817657 243.369965,418.375397 244.112961,423.522278 
	C244.395569,425.479858 244.154922,427.512970 244.150360,430.500031 
M647.790771,286.245880 
	C647.990173,285.784851 649.065491,284.825104 648.066711,284.929047 
	C645.207336,285.226624 642.530029,286.302338 640.457886,289.586670 
	C643.737000,289.424408 645.294128,287.432526 647.790771,286.245880 
z"/>
<path fill="#1C2C58" opacity="1.000000" stroke="none" 
	d="
M92.443169,280.218201 
	C93.888519,278.178619 93.698395,276.089722 94.123573,274.158203 
	C94.693291,271.570038 96.198433,269.982910 98.967636,270.049652 
	C101.570152,270.112396 103.798813,271.336731 104.021347,273.973816 
	C104.771408,282.862213 109.996315,287.223267 118.193954,288.997955 
	C120.791565,289.560303 122.107414,291.374146 122.069794,294.080841 
	C122.033386,296.699677 120.439491,298.225128 118.111237,298.475922 
	C109.478714,299.405792 105.457016,304.712158 103.674011,312.647400 
	C103.178627,314.852142 101.798515,317.092987 98.908081,317.031769 
	C95.789062,316.965698 94.689941,314.709808 94.168739,312.110626 
	C92.691681,304.744720 89.025482,299.630585 81.011902,298.541779 
	C78.573586,298.210480 76.585915,296.913574 76.520058,294.017212 
	C76.451363,290.996246 78.226585,289.382965 80.952293,288.855469 
	C86.072731,287.864594 89.591911,284.816803 92.443169,280.218201 
z"/>
<path fill="#1C2C58" opacity="1.000000" stroke="none" 
	d="
M836.114014,302.275757 
	C840.891174,299.320404 845.165771,296.601624 844.997192,290.284668 
	C844.926575,287.639069 847.251343,286.210358 849.818298,286.149445 
	C852.337219,286.089661 854.533508,287.210602 855.003845,289.919708 
	C856.379883,297.845154 861.477539,301.951996 868.825989,303.900574 
	C870.790222,304.421417 872.050598,305.523621 872.139282,307.708191 
	C872.237366,310.124756 870.870239,311.152100 868.783081,312.001923 
	C862.204895,314.680359 855.993896,317.756805 854.907532,326.026855 
	C854.582153,328.503571 852.833557,330.421844 850.204224,330.478638 
	C847.570740,330.535461 845.628174,328.609222 845.304138,326.235626 
	C844.095337,317.381104 838.061218,313.855438 830.370483,311.917725 
	C828.289001,311.393280 827.282654,310.001404 827.403687,307.900452 
	C827.519653,305.887512 828.430786,304.342072 830.580444,303.996918 
	C832.392578,303.705933 834.228821,303.581482 836.114014,302.275757 
z"/>
</svg>
